<?xml version="1.0" encoding="UTF-8" standalone="no"?>
<svg
   viewBox="0 0 50 50"
   width="150px"
   height="150px"
   version="1.1"
   id="svg1"
   sodipodi:docname="html.svg"
   inkscape:version="1.4.2 (f4327f4, 2025-05-13)"
   xmlns:inkscape="http://www.inkscape.org/namespaces/inkscape"
   xmlns:sodipodi="http://sodipodi.sourceforge.net/DTD/sodipodi-0.dtd"
   xmlns:xlink="http://www.w3.org/1999/xlink"
   xmlns="http://www.w3.org/2000/svg"
   xmlns:svg="http://www.w3.org/2000/svg">
  <defs
     id="defs1">
    <linearGradient
       id="linearGradient1"
       inkscape:collect="always">
      <stop
         style="stop-color:#f953c6;stop-opacity:1;"
         offset="0"
         id="stop1" />
      <stop
         style="stop-color:#b91d73;stop-opacity:1;"
         offset="1"
         id="stop2" />
    </linearGradient>
    <linearGradient
       inkscape:collect="always"
       xlink:href="#linearGradient1"
       id="linearGradient2"
       x1="4.4731612"
       y1="1.9880716"
       x2="45.52684"
       y2="47.912525"
       gradientUnits="userSpaceOnUse" />
  </defs>
  <sodipodi:namedview
     id="namedview1"
     pagecolor="#ffffff"
     bordercolor="#000000"
     borderopacity="0.25"
     inkscape:showpageshadow="2"
     inkscape:pageopacity="0.0"
     inkscape:pagecheckerboard="0"
     inkscape:deskcolor="#d1d1d1"
     inkscape:zoom="3.3533333"
     inkscape:cx="75"
     inkscape:cy="75"
     inkscape:window-width="1360"
     inkscape:window-height="705"
     inkscape:window-x="-8"
     inkscape:window-y="-8"
     inkscape:window-maximized="1"
     inkscape:current-layer="svg1" />
  <path
     d="M 45.273438 2.324219 C 45.085938 2.117188 44.816406 2 44.535156 2 L 5.464844 2 C 5.183594 2 4.914063 2.117188 4.726563 2.324219 C 4.535156 2.53125 4.441406 2.808594 4.46875 3.089844 L 7.988281 42.515625 C 8.023438 42.929688 8.3125 43.273438 8.710938 43.390625 L 24.722656 47.960938 C 24.808594 47.988281 24.902344 48 24.996094 48 C 25.089844 48 25.179688 47.988281 25.269531 47.960938 L 41.292969 43.390625 C 41.691406 43.273438 41.976563 42.929688 42.015625 42.515625 L 45.53125 3.089844 C 45.558594 2.808594 45.464844 2.53125 45.273438 2.324219 Z M 36.847656 15.917969 L 18.035156 15.917969 L 18.484375 21.007813 L 36.394531 21.007813 L 35.050781 36.050781 L 24.992188 39.089844 L 24.894531 39.058594 L 14.953125 36.046875 L 14.410156 29.917969 L 19.28125 29.917969 L 19.492188 32.296875 L 25.050781 33.460938 L 30.507813 32.296875 L 31.089844 25.859375 L 14.046875 25.859375 L 12.722656 11.054688 L 37.28125 11.054688 Z"
     id="path1"
     style="fill-opacity:1;fill:url(#linearGradient2)" />
</svg>
