<?xml version="1.0" encoding="UTF-8" standalone="no"?>
<svg
   width="512px"
   height="135px"
   viewBox="0 0 512 135"
   version="1.1"
   preserveAspectRatio="xMidYMid"
   id="svg2"
   sodipodi:docname="mongodb.svg"
   inkscape:version="1.4.2 (f4327f4, 2025-05-13)"
   xmlns:inkscape="http://www.inkscape.org/namespaces/inkscape"
   xmlns:sodipodi="http://sodipodi.sourceforge.net/DTD/sodipodi-0.dtd"
   xmlns:xlink="http://www.w3.org/1999/xlink"
   xmlns="http://www.w3.org/2000/svg"
   xmlns:svg="http://www.w3.org/2000/svg">
  <defs
     id="defs2">
    <linearGradient
       id="linearGradient6"
       inkscape:collect="always">
      <stop
         style="stop-color:#f953c6;stop-opacity:1;"
         offset="0"
         id="stop6" />
      <stop
         style="stop-color:#b91d73;stop-opacity:1;"
         offset="1"
         id="stop7" />
    </linearGradient>
    <linearGradient
       inkscape:collect="always"
       xlink:href="#linearGradient6"
       id="linearGradient7"
       x1="10.947369"
       y1="18.526316"
       x2="512.42108"
       y2="134.73685"
       gradientUnits="userSpaceOnUse" />
  </defs>
  <sodipodi:namedview
     id="namedview2"
     pagecolor="#ffffff"
     bordercolor="#000000"
     borderopacity="0.25"
     inkscape:showpageshadow="2"
     inkscape:pageopacity="0.0"
     inkscape:pagecheckerboard="0"
     inkscape:deskcolor="#d1d1d1"
     inkscape:zoom="1.1875"
     inkscape:cx="242.94737"
     inkscape:cy="-13.052632"
     inkscape:window-width="1360"
     inkscape:window-height="705"
     inkscape:window-x="-8"
     inkscape:window-y="-8"
     inkscape:window-maximized="1"
     inkscape:current-layer="svg2" />
  <title
     id="title1">MongoDB</title>
  <g
     id="g2">
    <path
       id="path1"
       d="M 28.927734 0 C 28.867537 9.2518585e-18 28.805951 0.024064032 28.757812 0.072265625 C 27.842962 1.3737093 23.36619 7.6407541 18.166016 13.810547 C -26.468476 70.736365 25.195312 109.15234 25.195312 109.15234 L 25.628906 109.44141 C 26.014063 115.3699 26.976562 123.90234 26.976562 123.90234 L 28.902344 123.90234 L 30.830078 123.90234 C 30.830078 123.90234 31.792529 115.41811 32.177734 109.44141 L 32.611328 109.10352 C 32.659443 109.15173 84.324137 70.736365 39.689453 13.810547 C 34.489327 7.6407541 30.010505 1.3737093 29.095703 0.072265625 C 29.04754 0.024064032 28.987932 -9.2518585e-18 28.927734 0 z M 87.261719 42.908203 L 87.261719 46.441406 L 89.964844 46.441406 C 90.785394 46.441406 91.559177 46.78029 92.138672 47.361328 C 92.717685 47.942318 93.005859 48.718055 93.005859 49.541016 L 92.523438 102.46289 C 92.523438 104.10881 91.172832 105.46498 89.53125 105.51367 L 86.779297 105.56055 L 86.779297 109.04688 L 103.0957 109.04688 L 103.0957 105.56055 L 101.40625 105.51367 C 99.76515 105.46498 98.412109 104.10881 98.412109 102.46289 L 98.412109 52.591797 L 121.87305 109.04688 C 122.21052 109.86984 122.98232 110.40234 123.85156 110.40234 C 124.72032 110.40234 125.49407 109.86984 125.83203 109.04688 L 148.75977 53.849609 L 149.09766 102.46289 C 149.09766 104.1575 147.74595 105.51234 146.05664 105.56055 L 144.32031 105.56055 L 144.32031 109.04688 L 163.43555 109.04688 L 163.43555 105.56055 L 160.82812 105.56055 C 159.18703 105.56055 157.83532 104.15812 157.78711 102.51172 L 157.64258 49.589844 C 157.64258 47.895374 158.99318 46.538638 160.63477 46.490234 L 163.43555 46.441406 L 163.43555 42.908203 L 147.11914 42.908203 L 125.58984 95.634766 L 104.06055 43.052734 L 104.01172 42.908203 L 87.261719 42.908203 z M 398.22266 42.908203 L 398.22266 46.431641 L 400.47852 46.431641 C 401.34245 46.431641 402.11091 46.770485 402.87891 47.542969 C 403.59918 48.267097 403.98242 49.08827 403.98242 49.957031 L 403.98242 101.9082 C 403.98242 102.77696 403.59918 103.59814 402.87891 104.32227 C 402.15912 105.04639 401.34245 105.43164 400.47852 105.43164 L 398.22266 105.43164 L 398.22266 108.95703 L 421.26367 108.95703 C 427.16806 108.95703 432.64081 107.60529 437.53711 104.99805 C 442.43293 102.3908 446.41675 98.527779 449.29688 93.603516 C 452.17699 88.67877 453.66406 82.740122 453.66406 75.980469 C 453.66406 69.221297 452.17699 63.330378 449.29688 58.357422 C 446.36854 53.336254 442.43293 49.522693 437.53711 46.867188 C 432.64081 44.259989 427.16806 42.908203 421.26367 42.908203 L 398.22266 42.908203 z M 460.12695 42.908203 L 460.12695 46.431641 L 462.20703 46.431641 C 463.07772 46.431641 463.85269 46.770485 464.62695 47.542969 C 465.35301 48.267097 465.73828 49.08827 465.73828 49.957031 L 465.73828 101.9082 C 465.73828 102.77696 465.35301 103.59814 464.62695 104.32227 C 463.90138 105.04639 463.07772 105.43164 462.20703 105.43164 L 459.93164 105.43164 L 459.93164 108.95703 L 488.24219 108.95703 C 492.54742 108.95703 496.56308 108.23194 500.19336 106.7832 C 503.82364 105.33495 506.72588 103.21073 508.80859 100.41016 C 510.9347 97.610066 512 94.181737 512 90.222656 C 511.95179 85.973828 510.69373 82.352926 508.12891 79.408203 C 505.99798 76.945589 501.88438 74.870545 497.04883 73.759766 C 503.72604 70.428391 507.16016 65.744028 507.16016 59.708984 C 507.16016 56.425821 506.29211 53.481528 504.54688 50.970703 C 502.80646 48.46036 500.33866 46.43144 497.19531 45.03125 C 494.04714 43.631108 490.36763 42.908203 486.20703 42.908203 L 460.12695 42.908203 z M 28.888672 43.068359 C 28.965119 43.061956 29.046875 43.110442 29.046875 43.212891 L 31.839844 105.19922 L 31.839844 105.29688 C 31.213921 106.30882 28.902344 108.28516 28.902344 108.28516 C 28.902344 108.28516 26.592767 106.30882 25.966797 105.29688 L 25.966797 105.19922 L 28.757812 43.212891 C 28.757812 43.122495 28.821219 43.074009 28.888672 43.068359 z M 416.17578 47.832031 L 420.83203 47.832031 C 425.05627 47.832031 428.99127 48.847249 432.54297 50.875 C 436.09515 52.902751 438.97687 56.040099 441.13672 60.240234 C 443.29705 64.489063 444.40039 69.752818 444.40039 75.884766 C 444.40039 82.064924 443.29705 87.277898 441.13672 91.478516 C 438.97687 95.679133 436.09515 98.817469 432.54297 100.8457 C 428.99127 102.87345 425.05627 103.88672 420.83203 103.88672 L 416.17578 103.88672 C 415.31184 103.88672 414.54339 103.55016 413.77539 102.77734 C 413.05512 102.05322 412.67188 101.23252 412.67188 100.36328 L 412.67188 51.357422 C 412.67188 50.488179 413.00739 49.71618 413.77539 48.943359 C 414.49518 48.219231 415.31184 47.832031 416.17578 47.832031 z M 478.12695 47.880859 L 484.51562 47.880859 C 489.11013 47.880859 492.49798 49.039171 494.62891 51.259766 C 496.75501 53.529054 497.82031 56.427089 497.82031 60 C 497.82031 63.669333 496.80373 66.613389 494.82227 68.833984 C 492.83598 71.006851 489.8369 72.117188 485.86914 72.117188 L 474.59375 72.117188 L 474.59375 51.40625 C 474.59375 50.537007 474.93276 49.763055 475.70703 48.990234 C 476.43309 48.266106 477.25578 47.880859 478.12695 47.880859 z M 195.97656 60.746094 C 191.62831 60.746094 187.5531 61.703525 183.97266 63.664062 L 183.68359 63.826172 C 179.98582 65.846692 177.0573 68.781319 174.89648 72.486328 C 172.73567 76.191337 171.63086 80.522534 171.63086 85.333984 C 171.63086 90.145434 172.73567 94.474678 174.89648 98.179688 C 177.0573 101.8847 179.98582 104.82079 183.68359 106.8418 C 187.38137 108.86232 191.51078 109.92188 195.97656 109.92188 C 200.32482 109.92188 204.40198 108.96205 207.98242 107.00195 L 208.27148 106.8418 C 211.96926 104.82079 214.89778 101.8847 217.05859 98.179688 C 219.21941 94.474678 220.32422 90.145434 220.32422 85.333984 C 220.32422 80.522534 219.21941 76.191337 217.05859 72.486328 C 214.89778 68.781319 211.96926 65.846692 208.27148 63.826172 C 204.57371 61.80517 200.44234 60.746094 195.97656 60.746094 z M 258.76367 60.746094 C 251.84251 60.746094 246.37439 63.55858 242.55078 69.087891 C 242.50257 69.184795 242.35801 69.234375 242.21289 69.234375 C 242.06729 69.234375 241.9707 69.137302 241.9707 68.992188 L 240.17969 62.054688 L 237.17969 62.054688 L 229.48438 66.46875 L 229.48438 68.894531 L 231.46875 68.894531 C 232.38813 68.894531 233.16258 69.13561 233.69531 69.621094 C 234.22756 70.106096 234.51758 70.835301 234.51758 71.853516 L 234.51758 102.45703 C 234.51758 103.33013 234.22756 104.0581 233.69531 104.5918 C 233.16258 105.12501 232.43563 105.41602 231.56445 105.41602 L 229.62891 105.41602 L 229.62891 108.95703 L 247.3418 108.95703 L 247.3418 105.41602 L 245.40625 105.41602 C 244.53508 105.41602 243.80959 105.12501 243.27734 104.5918 C 242.74509 104.0581 242.45508 103.33013 242.45508 102.45703 L 242.45508 82.183594 C 242.45508 79.612987 243.03463 77.041927 244.09961 74.519531 C 245.21232 72.046311 246.85894 69.961931 249.03711 68.361328 C 251.2148 66.760725 253.82748 65.984375 256.82812 65.984375 C 260.21591 65.984375 262.78216 67.051249 264.37891 69.185547 C 265.97613 71.319844 266.79883 74.084703 266.79883 77.382812 L 266.79883 102.4082 C 266.79883 103.28082 266.50686 104.00927 265.97461 104.54297 C 265.44236 105.07666 264.71688 105.36719 263.8457 105.36719 L 261.91016 105.36719 L 261.91016 108.9082 L 279.62305 108.9082 L 279.62305 105.36719 L 277.6875 105.36719 C 276.96144 105.46457 276.28358 105.17432 275.70312 104.64062 C 275.17039 104.10741 274.88086 103.37896 274.88086 102.50586 L 274.88086 76.509766 C 274.88086 71.562843 273.42962 67.68043 270.52539 64.916016 C 267.67034 62.151119 263.69999 60.746094 258.76367 60.746094 z M 309.82227 60.746094 C 305.95286 60.746094 302.42251 61.567427 299.23047 63.210938 C 296.03842 64.854448 293.52396 67.078011 291.73438 69.929688 C 289.94527 72.733153 289.02734 75.875706 289.02734 79.210938 C 289.02734 82.207728 289.70301 84.962228 291.10547 87.427734 C 292.45971 89.796337 294.29778 91.778365 296.61914 93.421875 L 289.70312 102.80078 C 288.83243 103.96074 288.73656 105.50681 289.36523 106.76367 C 290.04212 108.06874 291.29885 108.8418 292.75 108.8418 L 294.73438 108.8418 C 292.88028 110.09249 291.3804 111.56553 290.32227 113.30273 L 290.1875 113.53125 C 288.93016 115.60962 288.30078 117.78432 288.30078 120.00781 C 288.30078 124.0908 290.07485 127.47483 293.57422 130.02148 L 293.76562 130.16016 C 297.3448 132.72208 302.37554 134.02539 308.71094 134.02539 C 313.11211 134.02539 317.31796 133.30041 321.13867 131.89844 C 324.89706 130.53699 327.9709 128.53771 330.27148 125.94336 L 330.47266 125.71289 C 332.84271 123.00585 334.05273 119.71784 334.05273 115.94727 C 334.05273 111.98385 332.60021 109.18117 329.21484 106.47461 C 326.31351 104.20243 321.76789 102.99414 316.10938 102.99414 L 296.76562 102.99414 C 296.7367 102.99414 296.70615 102.97691 296.6875 102.96289 L 296.66797 102.94531 L 296.66016 102.92383 C 296.64891 102.89291 296.63353 102.83522 296.66797 102.80078 L 301.69727 96.033203 C 303.05151 96.661391 304.30965 97.047526 305.42188 97.289062 C 306.58231 97.531081 307.88722 97.626953 309.33789 97.626953 C 313.40062 97.626953 317.07602 96.80562 320.26758 95.162109 C 323.45962 93.518599 326.02353 91.295518 327.86133 88.443359 C 329.69865 85.639894 330.61719 82.497341 330.61719 79.162109 C 330.61719 75.584859 328.87633 69.059841 324.13672 65.724609 C 324.13672 65.717378 324.14072 65.70835 324.14258 65.703125 C 324.14369 65.700738 324.14702 65.695326 324.14844 65.693359 C 324.1492 65.692474 324.15153 65.688294 324.15234 65.6875 C 324.15748 65.683263 324.16466 65.681423 324.16992 65.679688 L 324.18555 65.675781 L 334.58398 66.835938 L 334.58398 62.050781 L 317.94727 62.050781 C 315.33568 61.229267 312.62718 60.746094 309.82227 60.746094 z M 366.16211 60.746094 C 361.81385 60.746094 357.73865 61.703525 354.1582 63.664062 L 353.86914 63.826172 C 350.17136 65.846692 347.24089 68.781319 345.08008 72.486328 C 342.91927 76.191337 341.81641 80.522534 341.81641 85.333984 C 341.81641 90.145434 342.91927 94.474678 345.08008 98.179688 C 347.24089 101.8847 350.17136 104.82079 353.86914 106.8418 C 357.56692 108.86232 361.69633 109.92188 366.16211 109.92188 C 370.51037 109.92188 374.58557 108.96205 378.16602 107.00195 L 378.45508 106.8418 C 382.15286 104.82079 385.08137 101.8847 387.24219 98.179688 C 389.403 94.474678 390.50781 90.145434 390.50781 85.333984 C 390.50781 80.522534 389.403 76.191337 387.24219 72.486328 C 385.08137 68.781319 382.10465 65.846692 378.45508 63.826172 C 374.7573 61.80517 370.62789 60.746094 366.16211 60.746094 z M 195.97656 65.894531 C 200.77885 65.894531 204.66908 67.674235 207.50195 71.138672 C 210.38352 74.603109 211.82422 79.415612 211.82422 85.333984 C 211.82422 91.252357 210.38352 96.062907 207.50195 99.527344 C 204.66908 102.99178 200.77885 104.77148 195.97656 104.77148 C 191.2605 104.77148 187.42479 103.05441 184.60547 99.710938 L 184.45312 99.527344 C 181.57156 96.062907 180.13086 91.252357 180.13086 85.333984 C 180.13086 79.523218 181.51915 74.779539 184.29688 71.330078 L 184.45312 71.138672 C 187.286 67.674235 191.17475 65.894531 195.97656 65.894531 z M 366.16211 65.894531 C 370.96392 65.894531 374.85414 67.674235 377.6875 71.138672 C 380.52086 74.603109 382.00977 79.415612 382.00977 85.333984 C 382.00977 91.252357 380.56858 96.062907 377.6875 99.527344 C 374.85414 102.99178 370.96392 104.77148 366.16211 104.77148 C 361.44557 104.77148 357.60837 103.05441 354.78906 99.710938 L 354.63672 99.527344 C 351.75515 96.062907 350.31445 91.252357 350.31445 85.333984 C 350.31445 79.475884 351.70274 74.777865 354.48047 71.330078 L 354.63672 71.138672 C 357.46959 67.674235 361.35982 65.894531 366.16211 65.894531 z M 309.82227 65.917969 C 311.76876 65.917969 313.62756 66.362763 315.39648 67.292969 L 315.625 67.416016 C 317.4628 68.383127 318.96275 69.88133 320.17188 71.863281 C 321.33231 73.845232 321.96094 76.310568 321.96094 79.210938 C 321.96094 82.159518 321.38052 84.624854 320.17188 86.558594 C 319.01096 88.540545 317.4628 90.03923 315.625 91.005859 C 313.7872 91.972488 311.8047 92.503906 309.82227 92.503906 C 306.58201 92.503906 303.72881 91.343964 301.31055 89.072266 C 298.89277 86.800085 297.68359 83.464587 297.68359 79.210938 C 297.68359 74.957288 298.89277 71.621308 301.31055 69.349609 C 303.72881 67.077911 306.58201 65.917969 309.82227 65.917969 z M 474.54688 77.089844 L 488 77.089844 C 492.73913 77.089844 496.37011 78.297017 498.88672 80.710938 C 501.40333 83.125341 502.66211 86.264294 502.66211 90.126953 C 502.66211 92.444452 502.07822 94.7131 501.01758 96.789062 C 499.90391 98.913718 498.25573 100.60458 496.0332 101.9082 C 493.85407 103.21183 491.14335 103.88672 488 103.88672 L 478.07812 103.88672 C 477.20744 103.88672 476.43247 103.54883 475.6582 102.82422 C 474.93215 102.10009 474.54687 101.2794 474.54688 100.41016 L 474.54688 77.089844 z M 302.51953 108.79297 L 315.625 108.79297 C 319.25239 108.79297 321.57548 109.51932 323.12305 111.06641 C 324.67062 112.61301 325.44336 114.69013 325.44336 117.10742 C 325.44336 120.63598 324.04124 123.53761 321.23633 125.71289 C 318.43094 127.88817 314.65834 129 310.01562 129 C 305.95289 129 302.56803 128.08026 300.10156 126.33984 C 297.63509 124.59991 296.37695 121.94204 296.37695 118.55859 C 296.37695 116.43153 296.95822 114.44892 298.11914 112.70898 C 299.27958 110.96857 300.68173 109.71139 302.51953 108.79297 z "
       style="fill-opacity:1;fill:url(#linearGradient7)" />
  </g>
</svg>
